<?xml version="1.0" encoding="UTF-8"?>
<svg id="Layer_2" data-name="Layer 2" xmlns="http://www.w3.org/2000/svg" viewBox="0 0 335.34 335.34">
  <g id="Layer_1-2" data-name="Layer 1">
    <g>
      <path d="M335.34,296.74c.14,21.85-16.93,38.6-38.28,38.6H38.33c-21.81,0-38.53-17.39-38.33-38.81.55-57.5,47.2-104.85,105.04-104.8l126.82.11c57.12.05,103.11,47.82,103.48,104.91ZM297.43,311.37c8.78,0,14.08-7.16,13.98-14.89-.59-44.31-36.35-80.8-80.98-80.8h-125.47c-44.89,0-80.89,36.97-80.95,81.56-.01,7.96,6.15,14.15,14.32,14.15l259.11-.02Z"/>
      <path d="M158.73.5c46.54-5.04,87.45,28.88,92.33,74.36,4.93,45.96-28.48,87.45-74.39,92.32-45.84,4.86-86.97-28-92.27-73.8C79.11,47.69,111.99,5.55,158.73.5ZM162.43,24.24c-33.69,2.99-57.56,32.87-54.29,65.55,3.26,32.59,32.28,56.56,64.93,53.67s57.22-32.07,54.25-64.9-31.43-57.29-64.89-54.32Z"/>
    </g>
  </g>
</svg>