<?xml version="1.0" encoding="UTF-8"?>
<svg id="Layer_2" data-name="Layer 2" xmlns="http://www.w3.org/2000/svg" viewBox="0 0 239.6 335.91">
  <g id="Layer_1-2" data-name="Layer 1">
    <g>
      <path d="M132.3,239.45l-23.84.09c-32.35.12-60.39-25.53-60.39-58.52V58.42C48.07,26.12,75.17-.05,106.97,0l26.33.04c31.99.05,58.26,26.88,58.26,59.12v121.12c0,32.53-26.67,59.04-59.26,59.16ZM167.65,131.71h-35.94c-6.94-.01-12.12-5.83-11.93-12.31s5.2-11.56,11.94-11.64h35.96s0-23.95,0-23.95h-36.68c-6.68-.57-11.41-6.04-11.22-12.35s5.22-11.59,11.94-11.59l35.95-.02c-.16-19.84-16.01-35.91-35.89-35.9h-24.05c-19.76.02-35.85,15.97-35.85,35.95v119.69c0,19.98,16.09,35.93,35.85,35.93h24.05c19.86.02,35.73-16.05,35.89-35.88l-35.96-.03c-6.97,0-12.13-5.81-11.94-12.31s5.2-11.62,11.94-11.62h35.97s-.05-23.96-.05-23.96Z"/>
      <path d="M131.77,311.96h59.87c6.74.01,11.86,5.49,11.96,11.73s-4.86,12.23-12.07,12.23H12.09c-6.96,0-11.83-5.44-12.07-11.52-.25-6.6,4.9-12.42,12-12.43h95.78s0-25.18,0-25.18C47.59,280.79.93,230.41.08,169.73l-.08-38.05c.09-6.74,5.37-11.77,11.64-11.94s12.28,4.98,12.29,11.94l.06,36.53c.09,52.97,43.39,95.02,95.41,95.22,52.34.21,96.04-41.98,96.13-95.23l.06-36.53c.01-7.01,5.8-12.14,12.32-11.94s11.89,5.7,11.62,12.69l.03,32.76c1.4,62.73-45.52,116-107.87,122.19l.06,24.58Z"/>
      <path d="M224.54,311.83c6.95-1.76,13.02,2.38,14.57,8.48,1.65,6.51-2.07,12.87-8.57,14.59-6.04,1.6-12.58-1.93-14.4-7.97-1.88-6.24,1.36-13.32,8.39-15.1Z"/>
    </g>
  </g>
</svg>