<?xml version="1.0" encoding="UTF-8"?>
<svg id="Layer_2" data-name="Layer 2" xmlns="http://www.w3.org/2000/svg" viewBox="0 0 239.46 335.35">
  <defs>
    <style>
      .cls-1 {
        fill: #00b8db;
      }
    </style>
  </defs>
  <g id="Layer_1-2" data-name="Layer 1">
    <g>
      <path class="cls-1" d="M196.74,328.13l-76.96-82.01-77.73,81.68c-9.43,9.91-25.41,8.26-34.35-.77C2.73,322.02,0,316.26,0,308.97L.08,43.44C.08,20.31,19.48.18,42.65.16L195.34,0c23.82-.03,44.09,19.35,44.09,43.49l.03,267.04c0,12.98-10.78,23.38-23.01,24.67-7.42.78-14.4-1.4-19.72-7.06ZM129.3,221.57l86.12,91.29.09-269.29c0-11.27-9.54-19.4-20.18-19.65H44.22c-10.87.26-19.22,7.96-20.28,18.9l.1,269.41,86.37-90.88c5.25-5.9,13.46-6.09,18.89.23Z"/>
      <path class="cls-1" d="M129.3,221.57c-5.43-6.33-13.64-6.13-18.89-.23l-86.37,90.88-.1-269.41c1.06-10.94,9.41-18.64,20.28-18.9h151.11c10.64.25,20.18,8.38,20.18,19.65l-.09,269.29-86.12-91.29Z"/>
    </g>
  </g>
</svg>