<?xml version="1.0" encoding="UTF-8"?>
<svg id="Layer_2" data-name="Layer 2" xmlns="http://www.w3.org/2000/svg" viewBox="0 0 212.92 258.92">
  <defs>
    <style>
      .cls-1 {
        stroke: #231f20;
        stroke-miterlimit: 10;
        stroke-width: 6px;
      }
    </style>
  </defs>
  <g id="Layer_1-2" data-name="Layer 1">
    <g>
      <path class="cls-1" d="M209.9,51.31L161.55,3.01H31.07c-1.82.64-2.91,2.01-3.25,3.59l.07,14.2H6.83c-2.09-.02-3.83,1.53-3.83,4.03v227.26c0,1.86,1.54,3.83,3.41,3.83h181.79c2.69,0,3.98-2.06,3.98-3.77v-21.11s13.92.02,13.92.02c1.85-.14,3.4-1.43,3.82-3.69l-.02-176.06ZM163.91,16.47l32.64,32.61-32.87.16.23-32.76ZM184.42,248.31H10.66s0-219.85,0-219.85h17.22s0,198.19,0,198.19c0,2.15.87,3.43,3.07,4.39h153.5s-.02,17.28-.02,17.28ZM202.28,223.36H35.57s-.02-212.66-.02-212.66l120.5-.02v42.43c.14,1.94,1.64,3.55,3.93,3.77l42.31-.02v166.5Z"/>
      <path class="cls-1" d="M176.64,184.31l-117.96-.02c-2.53,0-4.27,1.78-4.22,3.93.05,2.14,1.82,3.75,4.34,3.75l117.91-.03c2.28,0,3.24-3.09,3.05-4.34-.17-1.11-1.58-3.29-3.12-3.29Z"/>
      <path class="cls-1" d="M176.33,146.36l-118.73.02c-1.87,0-3.42,2.95-3.18,4.29.3,1.63,1.96,3.39,4.25,3.39l117.57-.03c2.49,0,3.55-2.56,3.51-3.98-.04-1.49-1.42-3.68-3.43-3.68Z"/>
      <path class="cls-1" d="M54.54,112.62c.19,1.87,1.67,3.5,4.09,3.5h116.63c2.96,0,4.6-1.61,4.44-4.23-.12-2.01-1.88-3.44-4.45-3.44l-117.36.02c-2.28,0-3.53,2.49-3.36,4.15Z"/>
    </g>
  </g>
</svg>