<?xml version="1.0" encoding="UTF-8"?>
<svg id="Layer_2" data-name="Layer 2" xmlns="http://www.w3.org/2000/svg" viewBox="0 0 335.36 272.6">
  <g id="Layer_1-2" data-name="Layer 1">
    <path d="M155.74,199.21l-.04,37.5c-.02,19.93-16.18,35.73-35.54,35.89-19.67.16-36.27-15.66-36.28-35.9l-.02-59.91-23.17.06C27.43,176.92.62,150.71.01,118.02s25.15-60.79,58.43-60.94l23.94-.11L281.97,1.61c13.34-3.7,26.83-1.01,37.34,7.9s16.03,20.58,16.03,34.14v152.53c.01,15.86-8.22,29.67-21.27,37.83-11.31,7.07-23.54,6.76-35.98,2.93l-122.37-37.73ZM302.73,212.62c5.49-4.25,8.68-10.11,8.68-17.21V43.67c0-11.23-10.04-21.75-21.61-19.25l-193.97,53.72v77.79s189.67,57.84,189.67,57.84c5.91,2.62,11.66,2.29,17.23-1.14ZM71.88,152.74v-71.75s-13.52.11-13.52.11c-19.59.16-34.56,17.13-34.36,36.2.2,19.08,15.51,35.57,35.1,35.5l12.78-.05ZM131.76,236.35v-44.47s-23.95-7.28-23.95-7.28v52.08c.14,6.98,5.73,12.11,12.3,11.94s11.61-5.14,11.65-12.26Z"/>
  </g>
</svg>