<?xml version="1.0" encoding="UTF-8"?>
<svg id="Layer_2" data-name="Layer 2" xmlns="http://www.w3.org/2000/svg" viewBox="0 0 335.68 335.35">
  <g id="Layer_1-2" data-name="Layer 1">
    <g>
      <path d="M275.65,204.19c.02-7.26,5.3-12.12,11.66-12.33s12.31,4.96,12.29,11.95l-.25,74.94c-.1,30.52-26.61,56.59-57.41,56.59H93.77c-30.79,0-56.59-26.08-57.41-56.58l-.25-74.94c-.02-6.77,5.5-11.8,11.62-11.96,6.61-.17,12.29,4.91,12.32,11.99l.26,74c.07,20.21,17.89,33.9,37.21,33.9h140.68c19.33,0,37.14-13.68,37.21-33.91l.24-73.65Z"/>
      <path d="M167.91,29.14L20.35,176.68c-4.6,4.6-11.66,4.11-16.14.22-4.14-3.59-6.23-11.65-1.5-16.37L160.47,2.76c4.71-4.71,12.13-2.81,16.34,1.4l155.89,155.93c4.62,4.62,3.36,12.11-.42,16.06-4.28,4.48-10.89,5.16-16.15,1.26L167.91,29.14Z"/>
    </g>
  </g>
</svg>