<?xml version="1.0" encoding="UTF-8"?>
<svg id="Layer_2" data-name="Layer 2" xmlns="http://www.w3.org/2000/svg" viewBox="0 0 239.4 335.39">
  <g id="Layer_1-2" data-name="Layer 1">
    <g>
      <path d="M171,335.33l-102.18.06C31.36,335.41,0,305.69,0,267.85v-112.86c0-19.73,16.44-35.02,35.79-35.23l.05-41.06C36.83,33.58,74.74-1.81,119.65.07c46.16-1.96,84.52,35.3,83.84,81.64l.03,38.05c19.87.15,35.9,15.96,35.89,35.99l-.08,112.12c-.03,37.36-30.79,67.44-68.32,67.46ZM179.55,119.76l-.02-41.12c-1.24-32.02-27.97-56.32-59.87-54.61-33.03-1.82-60.46,24.45-59.89,57.63v38.12s119.77-.01,119.77-.01ZM172.55,311.18c23.27-.01,42.65-19.53,42.69-42.45l.22-112.97c.01-6.71-5.3-12.03-12.07-12.03H35.94c-6.83,0-12.07,5.3-12.07,12.03l.12,112.22c.02,23.65,19.64,43.28,43.27,43.26l105.29-.06Z"/>
      <path d="M131.62,263.51c0,6.47-4.93,11.36-10.96,11.91-5.69.52-12.75-3.85-12.79-10.5l-.23-40.78c-13.24-7.75-15.69-25.04-6.23-36.21s26.99-11.24,36.51,0c9.43,11.15,7.02,28.45-6.25,36.21l-.05,39.36Z"/>
    </g>
  </g>
</svg>