<?xml version="1.0" encoding="UTF-8"?>
<svg id="Layer_2" data-name="Layer 2" xmlns="http://www.w3.org/2000/svg" viewBox="0 0 337.71 312.53">
  <g id="Layer_1-2" data-name="Layer 1">
    <g>
      <path d="M74.65,204.25c7.46.93,12.29,6.38,11.65,13.3-.59,6.41-6.58,11.77-13.55,10.65-16.21-2.61-32.23,3.38-42.41,16.08-5.55,6.93-7.67,15.15-5.18,24.08,2,7.18,7.77,13.57,15.49,16.82,9.49,3.99,18.53,4.14,28.71,1.89,15.53-3.43,28.72-16.36,28.73-33.41l.12-241.53c0-7.01,5.38-11.9,11.63-12.08s12.32,4.83,12.32,12.08l-.1,241.54c-.01,28.5-21.38,51.59-48.45,57.06-14.4,2.91-27.84,2.5-41.3-2.9-14.98-6.01-26.16-18.27-30.19-32.23-5.1-17.67-.67-34.25,10.42-47.56,15.19-18.22,38.2-26.78,62.12-23.8Z"/>
      <path d="M326.05,299.43l-167.87.02c-6.96,0-11.88-5.46-12.05-11.63-.18-6.55,4.83-12.33,12.04-12.33h167.5c6.92,0,11.85,5.36,12.03,11.65.17,5.89-4.3,12.28-11.65,12.29Z"/>
      <path d="M206,197.36c0,7.06-5.41,12.07-11.65,12.25-6.51.18-12.3-4.98-12.31-11.92v-29.98s-29.98-.02-29.98-.02c-6.71,0-11.77-5.45-11.94-11.61-.18-6.55,4.96-12.31,11.93-12.32l29.98-.02v-29.97c.01-7,5.86-12.13,12.31-11.94,6.78.21,11.7,5.7,11.69,12.69l-.07,29.22h30.01c6.97.01,12.12,5.88,11.92,12.31-.21,6.79-5.69,11.71-12.68,11.69l-29.23-.07v29.68Z"/>
      <path d="M326.11,47.91l-96.13.03c-6.86,0-11.84-5.48-12-11.63-.18-6.55,4.88-12.33,11.99-12.33h95.74c6.83,0,11.8,5.36,11.99,11.65.18,5.9-4.37,12.28-11.59,12.28Z"/>
      <path d="M193.98,71.49c-.38-26.72-21.7-47.36-47.9-47.52-7.04-.04-12.14-5.83-11.93-12.3S139.75-.08,146.79,0c39.17.43,70.74,32.04,71.2,71.21.08,7-4.96,12.44-11.64,12.63-6.61.18-12.27-4.82-12.37-12.35Z"/>
      <path d="M326.14,131.74l-72.23.04c-6.81,0-11.82-5.49-11.98-11.63-.18-6.55,4.91-12.33,11.97-12.33h71.83c6.78,0,11.77,5.37,11.97,11.65.18,5.91-4.41,12.27-11.57,12.27Z"/>
      <path d="M326.14,215.58l-72.23.04c-6.81,0-11.82-5.49-11.98-11.63-.18-6.55,4.91-12.33,11.97-12.33h71.83c6.78,0,11.78,5.36,11.97,11.65.18,5.9-4.41,12.27-11.57,12.27Z"/>
    </g>
  </g>
</svg>