<svg width="148" height="201" viewBox="0 0 148 201" fill="none" xmlns="http://www.w3.org/2000/svg">
<path d="M0 66.8947C0 65.296 1.29602 64 2.89474 64C31.6717 64 55 87.3283 55 116.105L50 197.562C50 199.461 48.461 201 46.5625 201C18.0853 201 5 177.915 5 149.438L0 66.8947Z" fill="#333333"/>
<path d="M0.0800781 25.3789C7.45331 32.2756 17.3575 36.5 28.25 36.5C38.4508 36.5 47.7849 32.7949 54.9854 26.6602C54.9937 26.9391 55 27.219 55 27.5C55 42.6878 42.6878 55 27.5 55C12.3122 55 0 42.6878 0 27.5C0 26.7863 0.0266824 26.0789 0.0800781 25.3789ZM27.5 0C41.1388 0 52.4559 9.92923 54.623 22.9531C47.7608 29.4879 38.4741 33.5 28.25 33.5C17.3848 33.5 7.57843 28.969 0.615234 21.6943C3.28013 9.29475 14.304 0 27.5 0Z" fill="#009DFE"/>
<path d="M70 0C112.795 0.00876522 147.484 34.7033 147.484 77.5C147.484 120.302 112.786 155 69.9844 155C68.6085 155 67.5159 153.866 67.5156 152.49V120.862C67.5156 119.524 68.6456 119 69.9844 119C91.5214 119 108.98 101.012 108.98 79.4746C108.98 57.9375 91.5214 40.0003 69.9844 40H68.3432C64.8072 40 62.3648 36.3956 62.9705 32.9118C63.3185 30.9101 63.5 28.8513 63.5 26.75C63.5 20.8304 62.0607 15.2474 59.5134 10.331C57.3972 6.2467 60.0341 0 64.6341 0H70Z" fill="#333333"/>
<path d="M76 150C76 152.761 73.7614 155 71 155H68.2855C65.4151 155 63.134 152.589 63.2932 149.723L64.7376 123.723C64.8848 121.073 67.0763 119 69.7299 119H71C73.7614 119 76 121.239 76 124V150Z" fill="#333333"/>
</svg>
