<?xml version="1.0" encoding="UTF-8"?>
<svg id="Layer_2" data-name="Layer 2" xmlns="http://www.w3.org/2000/svg" viewBox="0 0 335.4 312.13">
  <g id="Layer_1-2" data-name="Layer 1">
    <g>
      <path d="M67.77,227.95l-34.03-.05C14.59,227.88,0,212.47,0,193.48v-74.79c0-19.48,15.06-34.61,34.51-34.54l33.12.12L148.65,16.62C160.61,6.63,173.12.83,188.48.08c36.24-1.77,63.44,26.05,63.44,61.89v188.21c0,35.83-27.2,63.68-63.43,61.86-15.73-.79-28.46-6.97-40.66-17.17l-80.05-66.92ZM164.98,277.29c6.52,6.82,14.87,10,23.45,10.54,23.13,2.27,39.45-15.34,39.45-37.57V61.89c-.01-22.23-16.33-39.79-39.45-37.55-8.64.34-17.04,3.65-23.44,10.1l-81.09,67.39v108.49s81.08,66.98,81.08,66.98ZM33.74,203.96l26.2.03v-95.82s-26.2.03-26.2.03c-5.49,0-9.59,4.27-9.73,9.75v76.26c.15,5.47,4.25,9.75,9.73,9.75Z"/>
      <path d="M275.75,203.97c-6.88-.03-12.21-5.23-12.21-11.98v-71.82c0-6.72,5.34-12.01,11.92-11.98l13.56.06c26.56.12,46.98,23.03,46.37,48.95s-22.1,46.94-48.63,46.83l-11.01-.05ZM287.53,180.06c14.25-.45,24.03-11.54,23.87-24.37s-10.6-23.44-23.92-23.58l.05,47.95Z"/>
    </g>
  </g>
</svg>