<?xml version="1.0" encoding="UTF-8"?>
<svg id="Layer_2" data-name="Layer 2" xmlns="http://www.w3.org/2000/svg" viewBox="0 0 335.36 336.16">
  <g id="Layer_1-2" data-name="Layer 1">
    <g>
      <path d="M193.12,112.6c24.74-16.41,29.93-49.51,11.1-71.85s-53.11-22.6-72.37-.77-14.82,55.68,9.87,72.07c10.99,7.29,16.03,20.7,13.07,33.69-2.68,11.76-12.33,21.69-25.07,24.28-18.62,3.78-35.63,11.22-51.03,22.25-5.54,3.96-12.83,2.36-16.54-2.68-4-5.42-2.89-12.85,2.87-16.99,17.97-12.91,38.1-21.64,59.83-26.05,3.37-.68,5.85-3.25,6.57-6,.86-3.26-.53-6.95-3.31-8.81-36.53-24.44-42.81-75.01-14.18-107.39,28.86-32.64,79.47-32.41,108.05.27,28.62,32.73,21.75,83.37-15.02,107.58-2.59,1.71-3.76,5.5-3.16,8.35.64,3.02,3.2,5.23,6.46,6.12l21.11,5.78c6.75,1.85,10.52,8.31,8.63,15.16-1.63,5.9-8.2,10.2-14.77,8.07-7.06-2.3-13.87-4.15-21.11-5.83-12.25-2.83-21.36-12.63-23.71-24.11-2.53-12.37,1.7-25.87,12.7-33.16Z"/>
      <path d="M212.92,227.45c7.73-.75,13.89,3.67,14.57,10.86.65,6.93-4.58,12.71-11.93,13.17-14.58.91-27.85,8.97-35.02,21.67-7.72,13.67-1.11,30.29,13.01,36.16,10.16,4.22,20.56,4.78,30.99,1.19,5.68-1.96,11.16-4.22,15.91-8.16,6.79-5.64,10.91-14.11,10.92-23.47l.15-111.28c0-7.26,5.69-12.14,12.65-12.06,39.16.42,70.74,32.05,71.2,71.2.08,7.02-4.94,12.43-11.66,12.64-6.49.2-12.27-4.93-12.33-11.95-.2-21.86-14.78-40.7-35.87-46.19l-.31,99.25c-.09,27.5-21.76,48.81-47.7,53.85-15.05,2.93-28.9,2.67-42.89-3.26-13.89-5.88-24.46-17.31-28.62-30.03-5.45-16.66-2.37-32.66,7.16-45.84,11.81-16.33,29.38-25.78,49.77-27.76Z"/>
      <path d="M23.96,298.87c-.04,7.28-5.37,12.17-11.66,12.35C5.8,311.41,0,306.32,0,299.25c-.03-30.93,8.93-60.58,25.99-86.21,3.79-5.69,11.26-6.85,16.6-3.27s6.96,11,3.06,16.95c-14.02,21.41-21.57,45.92-21.69,72.14Z"/>
    </g>
  </g>
</svg>