<?xml version="1.0" encoding="UTF-8"?>
<svg id="Layer_2" data-name="Layer 2" xmlns="http://www.w3.org/2000/svg" viewBox="0 0 334.99 310.78">
  <g id="Layer_1-2" data-name="Layer 1">
    <g>
      <path d="M143.38,263.11c-6.75,0-11.77-5.36-11.96-11.64-.18-5.9,4.5-12.23,11.23-12.24l48.68-.08c-.1-23.13,11.31-44.46,28.81-57.44,19.68-14.6,44.07-18.07,66.96-10.25l.02-75.99c0-6.82,5.32-11.79,11.66-11.99,5.82-.18,12.24,4.45,12.25,11.28l.06,91.01c28.88,25.95,32.1,69.81,6.93,99.56-16.86,19.93-42.99,29.33-69.44,23.96-23.55-4.78-44.55-21.93-53.04-46.15l-52.15-.03ZM257.89,191.62c-27.09,2.99-45.44,27.4-42.25,53.41,3.19,26.02,26.78,44.59,52.78,41.73s45.23-26.59,42.33-52.76c-2.87-25.9-25.97-45.35-52.86-42.38Z"/>
      <path d="M83.83,47.56c-20.28,0-36.22,16.03-36.23,35.95l-.05,107.71c0,6.85-5.41,11.83-11.61,11.99-6.52.18-12.32-4.9-12.32-11.98l.07-108.48c.02-32.04,26.19-58.97,58.36-59.01l109.2-.15c6.85,0,11.81,5.46,11.99,11.63.19,6.53-4.9,12.31-11.99,12.31l-107.42.03Z"/>
      <path d="M59.62,263.12l-.09,12.01c-.03,4.49-2.53,8.36-5.91,10.26-3.81,2.14-8.55,2.2-12.32-.31l-35.91-23.91C1.78,258.77-.06,254.86,0,250.87s2.2-7.64,5.84-10.06l35-23.31c3.79-2.53,8.24-2.93,12.32-.86,3.58,1.81,6.38,5.8,6.39,10.53l.03,12h35.94c6.74.01,11.76,5.43,11.94,11.63.19,6.51-4.99,12.31-11.92,12.31h-35.91Z"/>
      <path d="M275.18,59.98l-.09-12.44-35.92-.02c-6.71,0-11.75-5.37-11.94-11.64-.18-5.92,4.51-12.21,11.22-12.23l36.63-.11.17-12.76c.05-3.98,3.28-7.46,6.17-9.07,3.61-2.01,8.27-2.53,11.96-.08l35.47,23.57c3.63,2.41,5.72,6.02,5.83,10.05.11,4.35-2.02,8.1-5.84,10.65l-35,23.31c-3.77,2.51-8.21,2.93-12.32.86-3.19-1.62-6.31-5.35-6.34-10.09Z"/>
      <path d="M275.14,250.86c0,7.07-5.43,12.07-11.65,12.25s-12.31-4.98-12.31-11.92v-24.03c0-6.73,5.42-11.76,11.62-11.94,6.51-.19,12.3,4.98,12.31,11.93l.03,23.71Z"/>
    </g>
  </g>
</svg>