<?xml version="1.0" encoding="UTF-8"?>
<svg id="Layer_2" data-name="Layer 2" xmlns="http://www.w3.org/2000/svg" viewBox="0 0 335.33 311.39">
  <g id="Layer_1-2" data-name="Layer 1">
    <g>
      <path d="M323.62,143.7l-227.69.02c-6.99,0-11.91-5.46-12.07-11.63-.17-6.56,4.82-12.33,12.06-12.33h227.33c6.96,0,11.87,5.35,12.05,11.65.17,5.89-4.28,12.29-11.68,12.29Z"/>
      <path d="M239.78,227.54l-227.69.02c-6.99,0-11.91-5.46-12.07-11.63-.17-6.56,4.82-12.33,12.06-12.33h227.33c6.96,0,11.87,5.35,12.05,11.65.17,5.89-4.28,12.29-11.68,12.29Z"/>
      <path d="M328.47,58.76l-71.45,35.72c-4.01,2.01-8.37,1.73-12.03-.61-3.07-1.96-5.46-5.62-5.46-10.07V12c0-4.45,2.4-8.11,5.48-10.05,3.65-2.31,8.01-2.63,12.01-.63l71.72,35.86c4.22,2.11,6.4,6.26,6.49,10.37.1,4.49-1.98,8.82-6.76,11.21Z"/>
      <path d="M323.67,311.37l-155.91.02c-6.94,0-11.88-5.47-12.04-11.63-.17-6.55,4.83-12.33,12.03-12.33h155.53c6.91,0,11.84,5.36,12.02,11.65.17,5.89-4.3,12.28-11.64,12.28Z"/>
      <path d="M120.11,311.36l-108.08.03c-6.88,0-11.85-5.48-12.01-11.63-.17-6.55,4.87-12.33,12-12.33h107.69c6.85,0,11.81,5.36,11.99,11.65.18,5.9-4.35,12.28-11.6,12.28Z"/>
      <path d="M96.18,59.85l-84.18.03c-6.84,0-11.83-5.48-11.99-11.63-.18-6.55,4.89-12.33,11.99-12.33h83.79c6.8,0,11.79,5.36,11.98,11.65.18,5.9-4.39,12.27-11.58,12.28Z"/>
      <path d="M204,59.84l-60.28.04c-6.78,0-11.8-5.49-11.97-11.63-.18-6.55,4.92-12.33,11.96-12.33h59.89c6.75,0,11.76,5.37,11.96,11.64.18,5.91-4.43,12.27-11.56,12.27Z"/>
      <path d="M48.34,143.66l-36.39.06c-6.73.01-11.78-5.5-11.95-11.63-.18-6.55,4.95-12.33,11.94-12.33h35.99c6.7,0,11.74,5.37,11.93,11.64.19,5.94-4.47,12.25-11.53,12.26Z"/>
      <path d="M323.8,227.5l-36.39.06c-6.73.01-11.78-5.5-11.95-11.63-.18-6.55,4.95-12.33,11.94-12.33h35.99c6.7,0,11.74,5.37,11.93,11.64.19,5.94-4.47,12.25-11.53,12.26Z"/>
    </g>
  </g>
</svg>