<?xml version="1.0" encoding="UTF-8"?>
<svg id="Layer_2" data-name="Layer 2" xmlns="http://www.w3.org/2000/svg" viewBox="0 0 302.61 302.3">
  <g id="Layer_1-2" data-name="Layer 1">
    <g>
      <path d="M218.89,251.5c-5.1-9.9-3.6-21.16,3.7-28.64,7.64-7.84,19.04-9.47,29.01-4.41,6.51,3.31,14.21.61,16.93-6.12l9.5-23.43c2.44-6.03-2.35-12.35-8.1-14.2-10.4-3.35-17.25-12.04-17.61-22.44s6.31-19.98,16.77-24.01c5.8-2.24,11.41-8.39,8.87-14.8l-9.75-24.54c-2.42-6.09.96-12.74,6.56-15.1,5.95-2.51,12.9.11,15.68,6.25l9.86,25.21c7.53,19.27-4.09,40-23.87,46.47,21.68,7.23,31.54,29.65,22.4,49.84l-8.02,19.51c-8.3,20.19-30.7,28.52-51.01,18.68,9.66,19.42,2.32,42.2-17.1,50.26l-23.74,9.85c-19.8,7.34-40.51-2.62-47.74-23.25-6.87,19.5-26.29,30.28-45.36,23.77l-25.42-10.25c-19.2-8.91-26.89-30.7-17.16-50.42-19.73,9.81-42.3,1.76-51.24-17.5l-9.77-23.88c-6.97-19.56,3.11-40,23.52-47.19-20.86-7.24-31.13-28.52-23.02-48.24l9.12-22.19c8.2-19.93,30.73-27.93,50.75-18.14-9.62-19.44-2.18-40.97,16.56-50.16l25.5-10.23c19.85-6.95,40.56,3.46,47.09,23.81,7.07-21.31,28.97-31.42,48.95-23.08l21.58,9.01c19.52,8.15,26.52,30.58,18.12,49.54-3.02,6.82-9.45,10.75-16.61,7.68-6.43-2.76-9.12-10.57-5.6-17.22,1.77-3.35,2.4-7.1,1.08-10.89-1.04-2.99-4-5.85-7.6-7.31l-21.78-8.82c-6.58-2.66-13.37,1.85-15.41,8.07-3.42,10.42-12.52,16.91-22.91,17.01s-19.91-6.66-23.57-17.04c-2.64-7.48-10.19-10.61-17.28-7.62l-22.18,9.36c-6.22,2.63-7.93,10.74-4.98,16.35,5.11,9.71,3.5,20.96-3.74,28.42-7.62,7.86-19.06,9.45-29,4.42-6.52-3.3-14.2-.62-16.94,6.12l-9.48,23.42c-2.58,6.36,2.68,12.54,8.61,14.46,10.41,3.36,17,12.47,17.1,22.9s-6.56,19.35-16.79,23.31c-5.78,2.24-11.42,8.38-8.86,14.8l9.36,23.47c2.78,6.96,10.54,9.85,17.23,6.38,9.65-5.01,20.86-3.48,28.38,3.86,7.48,7.3,9.53,18.58,4.54,28.38-2.91,5.71-1.92,14.01,4.58,16.71l23.77,9.91c6.6,2.75,13.53-1.86,15.59-8.25,3.37-10.42,12.52-16.91,22.9-17.03,10.8-.13,19.9,6.68,23.57,17.05,2.66,7.53,10.15,10.54,17.28,7.6l20.67-8.53c6.57-2.71,10.08-10.06,6.53-16.96Z"/>
      <path d="M144.5,103.76c26.73-3.83,50.46,14.95,54.15,40.66,3.76,26.18-14.58,50.46-40.69,54.17s-50.08-14.21-54.07-40.1c-3.99-25.93,13.64-50.86,40.61-54.72ZM147.46,127.57c-13.82,2.22-22.12,15.13-19.75,27.96,2.35,12.75,14.53,21.31,27.29,19.25,13-2.1,21.97-14.36,19.84-27.4-2.06-12.65-13.83-21.99-27.38-19.81Z"/>
    </g>
  </g>
</svg>